<?xml version="1.0" encoding="UTF-8" standalone="no"?>
<svg
   xmlns:dc="http://purl.org/dc/elements/1.1/"
   xmlns:cc="http://creativecommons.org/ns#"
   xmlns:rdf="http://www.w3.org/1999/02/22-rdf-syntax-ns#"
   xmlns:svg="http://www.w3.org/2000/svg"
   xmlns="http://www.w3.org/2000/svg"
   xmlns:sodipodi="http://sodipodi.sourceforge.net/DTD/sodipodi-0.dtd"
   xmlns:inkscape="http://www.inkscape.org/namespaces/inkscape"
   height="265"
   width="82"
   version="1.1"
   id="svg746"
   sodipodi:docname="juicy-flag-sprite-4.svg"
   inkscape:version="0.92.1 r15371">
  <metadata
     id="metadata752">
    <rdf:RDF>
      <cc:Work
         rdf:about="">
        <dc:format>image/svg+xml</dc:format>
        <dc:type
           rdf:resource="http://purl.org/dc/dcmitype/StillImage" />
        <dc:title></dc:title>
      </cc:Work>
    </rdf:RDF>
  </metadata>
  <defs
     id="defs750" />
  <sodipodi:namedview
     pagecolor="#ffffff"
     bordercolor="#666666"
     borderopacity="1"
     objecttolerance="10"
     gridtolerance="10"
     guidetolerance="10"
     inkscape:pageopacity="0"
     inkscape:pageshadow="2"
     inkscape:window-width="1366"
     inkscape:window-height="704"
     id="namedview748"
     showgrid="false"
     inkscape:zoom="2.0934066"
     inkscape:cx="171.51843"
     inkscape:cy="85.510448"
     inkscape:window-x="0"
     inkscape:window-y="27"
     inkscape:window-maximized="1"
     inkscape:current-layer="svg746" />
  <g
     id="g5554"
     transform="translate(0,1)">
    <g
       transform="translate(0,198)"
       id="g148"
       style="fill:none;fill-rule:evenodd;stroke:none;stroke-width:1">
      <g
         transform="translate(6,2)"
         id="g146">
        <path
           d="m 12.563,2 h 44.874 c 4.285,0 6.348,0.399 8.493,1.545 A 10.904,10.904 0 0 1 70.455,8.07 C 71.6,10.215 72,12.278 72,16.563 v 28.874 c 0,4.285 -0.399,6.348 -1.545,8.493 A 10.904,10.904 0 0 1 65.93,58.455 C 63.785,59.6 61.722,60 57.437,60 H 12.563 C 8.278,60 6.215,59.601 4.07,58.455 A 10.904,10.904 0 0 1 -0.455,53.93 C -1.6,51.785 -2,49.722 -2,45.437 V 16.563 c 0,-4.285 0.399,-6.348 1.545,-8.493 A 10.904,10.904 0 0 1 4.07,3.545 C 6.215,2.4 8.278,2 12.563,2 Z"
           id="path138"
           inkscape:connector-curvature="0"
           style="fill:#78c800;fill-rule:nonzero;stroke:#ffffff;stroke-width:4" />
        <path
           d="m 6.112,30.379 27.71,-20.197 a 2,2 0 0 1 2.356,0 l 27.71,20.197 a 2,2 0 0 1 -0.005,3.236 l -27.71,20.07 a 2,2 0 0 1 -2.346,0 L 6.117,33.615 A 2,2 0 0 1 6.112,30.379 Z"
           id="path140"
           inkscape:connector-curvature="0"
           style="fill:#ffc800" />
        <circle
           cx="35"
           cy="32"
           r="12"
           id="circle142"
           style="fill:#1cb0f6" />
        <path
           d="m 23.026,31.21 a 11.93,11.93 0 0 1 1.12,-4.335 l 22.84,5.695 a 11.938,11.938 0 0 1 -1.04,4.355 z"
           id="path144"
           inkscape:connector-curvature="0"
           style="fill:#ffffff" />
      </g>
    </g>
    <svg
       id="svg16"
       version="1.1"
       viewBox="0 0 82 66"
       height="66"
       width="82"
       y="0"
       x="0">
      <title
         id="title2">en</title>
      <g
         id="g14"
         style="fill:none;fill-rule:evenodd;stroke:none;stroke-width:1">
        <g
           id="g12">
          <path
             id="path4"
             d="m 18.563,4 h 44.874 c 4.285,0 6.348,0.399 8.493,1.545 a 10.904,10.904 0 0 1 4.525,4.525 C 77.6,12.215 78,14.278 78,18.563 v 28.874 c 0,4.285 -0.399,6.348 -1.545,8.493 A 10.904,10.904 0 0 1 71.93,60.455 C 69.785,61.6 67.722,62 63.437,62 H 18.563 C 14.278,62 12.215,61.601 10.07,60.455 A 10.904,10.904 0 0 1 5.545,55.93 C 4.4,53.785 4,51.722 4,47.437 V 18.563 C 4,14.278 4.399,12.215 5.545,10.07 A 10.904,10.904 0 0 1 10.07,5.545 C 12.215,4.4 14.278,4 18.563,4 Z"
             inkscape:connector-curvature="0"
             style="fill:#eeeeee;stroke:#ffffff;stroke-width:4" />
          <path
             id="path6"
             d="m 18.563,6 h 44.874 c 4.368,0 5.953,0.455 7.55,1.309 a 8.905,8.905 0 0 1 3.704,3.704 c 0.172,0.322 0.328,0.643 0.467,0.987 H 6.842 C 6.981,11.656 7.137,11.335 7.309,11.013 A 8.905,8.905 0 0 1 11.013,7.309 C 12.61,6.455 14.195,6 18.563,6 Z M 75.997,18 C 75.999,18.182 76,18.37 76,18.563 V 24 H 6 V 18.563 C 6,18.37 6,18.183 6.003,18 Z M 76,30 v 6 H 6 v -6 z m 0,17.437 c 0,0.193 0,0.38 -0.003,0.563 H 6.003 C 6,47.818 6,47.63 6,47.437 V 42 H 76 Z M 75.158,54 c -0.139,0.344 -0.295,0.665 -0.467,0.987 a 8.905,8.905 0 0 1 -3.704,3.704 C 69.39,59.545 67.805,60 63.437,60 H 18.563 c -4.368,0 -5.953,-0.455 -7.55,-1.309 A 8.905,8.905 0 0 1 7.309,54.987 10.18,10.18 0 0 1 6.842,54 Z"
             inkscape:connector-curvature="0"
             style="fill:#ff4b4b" />
          <path
             id="path8"
             d="M 18.563,6 H 41 V 30 H 6 V 18.563 C 6,14.195 6.455,12.61 7.309,11.013 A 8.905,8.905 0 0 1 11.013,7.309 C 12.61,6.455 14.195,6 18.563,6 Z"
             inkscape:connector-curvature="0"
             style="fill:#1cb0f6" />
          <path
             id="path10"
             d="m 33.806,15.602 -1.275,0.67 a 0.82,0.82 0 0 1 -1.19,-0.863 l 0.244,-1.42 a 0.417,0.417 0 0 0 -0.12,-0.37 l -1.031,-1.005 a 0.82,0.82 0 0 1 0.454,-1.398 l 1.426,-0.207 a 0.417,0.417 0 0 0 0.313,-0.228 l 0.638,-1.292 a 0.82,0.82 0 0 1 1.47,0 l 0.638,1.292 c 0.06,0.123 0.178,0.208 0.313,0.228 l 1.426,0.207 a 0.82,0.82 0 0 1 0.454,1.398 l -1.031,1.006 a 0.417,0.417 0 0 0 -0.12,0.368 l 0.243,1.42 a 0.82,0.82 0 0 1 -1.189,0.865 l -1.275,-0.671 a 0.417,0.417 0 0 0 -0.388,0 z m 0,10 -1.275,0.67 a 0.82,0.82 0 0 1 -1.19,-0.863 l 0.244,-1.42 a 0.417,0.417 0 0 0 -0.12,-0.37 l -1.031,-1.005 a 0.82,0.82 0 0 1 0.454,-1.398 l 1.426,-0.207 a 0.417,0.417 0 0 0 0.313,-0.228 l 0.638,-1.292 a 0.82,0.82 0 0 1 1.47,0 l 0.638,1.292 c 0.06,0.123 0.178,0.208 0.313,0.228 l 1.426,0.207 a 0.82,0.82 0 0 1 0.454,1.398 l -1.031,1.006 a 0.417,0.417 0 0 0 -0.12,0.368 l 0.243,1.42 a 0.82,0.82 0 0 1 -1.189,0.865 l -1.275,-0.671 a 0.417,0.417 0 0 0 -0.388,0 z m -10,-10 -1.275,0.67 a 0.82,0.82 0 0 1 -1.19,-0.863 l 0.244,-1.42 a 0.417,0.417 0 0 0 -0.12,-0.37 l -1.031,-1.005 a 0.82,0.82 0 0 1 0.454,-1.398 l 1.426,-0.207 a 0.417,0.417 0 0 0 0.313,-0.228 l 0.638,-1.292 a 0.82,0.82 0 0 1 1.47,0 l 0.638,1.292 c 0.06,0.123 0.178,0.208 0.313,0.228 l 1.426,0.207 a 0.82,0.82 0 0 1 0.454,1.398 l -1.031,1.006 a 0.417,0.417 0 0 0 -0.12,0.368 l 0.243,1.42 a 0.82,0.82 0 0 1 -1.189,0.865 l -1.275,-0.671 a 0.417,0.417 0 0 0 -0.388,0 z m 0,10 -1.275,0.67 a 0.82,0.82 0 0 1 -1.19,-0.863 l 0.244,-1.42 a 0.417,0.417 0 0 0 -0.12,-0.37 l -1.031,-1.005 a 0.82,0.82 0 0 1 0.454,-1.398 l 1.426,-0.207 a 0.417,0.417 0 0 0 0.313,-0.228 l 0.638,-1.292 a 0.82,0.82 0 0 1 1.47,0 l 0.638,1.292 c 0.06,0.123 0.178,0.208 0.313,0.228 l 1.426,0.207 a 0.82,0.82 0 0 1 0.454,1.398 l -1.031,1.006 a 0.417,0.417 0 0 0 -0.12,0.368 l 0.243,1.42 a 0.82,0.82 0 0 1 -1.189,0.865 l -1.275,-0.671 a 0.417,0.417 0 0 0 -0.388,0 z m -10,-10 -1.275,0.67 a 0.82,0.82 0 0 1 -1.19,-0.863 l 0.244,-1.42 a 0.417,0.417 0 0 0 -0.12,-0.37 l -1.031,-1.005 a 0.82,0.82 0 0 1 0.454,-1.398 l 1.426,-0.207 a 0.417,0.417 0 0 0 0.313,-0.228 l 0.638,-1.292 a 0.82,0.82 0 0 1 1.47,0 l 0.638,1.292 c 0.06,0.123 0.178,0.208 0.313,0.228 l 1.426,0.207 a 0.82,0.82 0 0 1 0.454,1.398 l -1.031,1.006 a 0.417,0.417 0 0 0 -0.12,0.368 l 0.243,1.42 a 0.82,0.82 0 0 1 -1.189,0.865 l -1.275,-0.671 a 0.417,0.417 0 0 0 -0.388,0 z m 0,10 -1.275,0.67 a 0.82,0.82 0 0 1 -1.19,-0.863 l 0.244,-1.42 a 0.417,0.417 0 0 0 -0.12,-0.37 l -1.031,-1.005 a 0.82,0.82 0 0 1 0.454,-1.398 l 1.426,-0.207 a 0.417,0.417 0 0 0 0.313,-0.228 l 0.638,-1.292 a 0.82,0.82 0 0 1 1.47,0 l 0.638,1.292 c 0.06,0.123 0.178,0.208 0.313,0.228 l 1.426,0.207 a 0.82,0.82 0 0 1 0.454,1.398 l -1.031,1.006 a 0.417,0.417 0 0 0 -0.12,0.368 l 0.243,1.42 a 0.82,0.82 0 0 1 -1.189,0.865 l -1.275,-0.671 a 0.417,0.417 0 0 0 -0.388,0 z"
             inkscape:connector-curvature="0"
             style="fill:#ffffff;fill-rule:nonzero" />
        </g>
      </g>
    </svg>
    <svg
       id="svg32"
       version="1.1"
       viewBox="0 0 82 66"
       height="66"
       width="82"
       y="66"
       x="0">
      <title
         id="title18">es</title>
      <g
         id="g30"
         style="fill:none;fill-rule:evenodd;stroke:none;stroke-width:1">
        <g
           id="g28">
          <path
             id="path20"
             d="m 18.563,4 h 44.874 c 4.285,0 6.348,0.399 8.493,1.545 a 10.904,10.904 0 0 1 4.525,4.525 C 77.6,12.215 78,14.278 78,18.563 v 28.874 c 0,4.285 -0.399,6.348 -1.545,8.493 A 10.904,10.904 0 0 1 71.93,60.455 C 69.785,61.6 67.722,62 63.437,62 H 18.563 C 14.278,62 12.215,61.601 10.07,60.455 A 10.904,10.904 0 0 1 5.545,55.93 C 4.4,53.785 4,51.722 4,47.437 V 18.563 C 4,14.278 4.399,12.215 5.545,10.07 A 10.904,10.904 0 0 1 10.07,5.545 C 12.215,4.4 14.278,4 18.563,4 Z"
             inkscape:connector-curvature="0"
             style="fill:#ff4b4b;stroke:#ffffff;stroke-width:4" />
          <path
             id="path22"
             d="M 6,21.429 H 76 V 44.57 H 6 Z"
             inkscape:connector-curvature="0"
             style="fill:#ffc800" />
          <path
             id="path24"
             d="m 33.222,27.214 c 1.074,0 1.945,0.87 1.945,1.945 v 7.682 a 1.945,1.945 0 1 1 -3.89,0 V 29.16 c 0,-1.074 0.871,-1.945 1.945,-1.945 z m -19.444,0 c 1.074,0 1.944,0.87 1.944,1.945 v 7.682 a 1.9445,1.9445 0 1 1 -3.889,0 V 29.16 c 0,-1.074 0.87,-1.945 1.945,-1.945 z"
             inkscape:connector-curvature="0"
             style="fill:#ffffff" />
          <path
             id="path26"
             d="m 19.417,25.286 h 8.166 c 0.967,0 1.75,0.783 1.75,1.75 v 7.845 a 5.833,5.833 0 0 1 -11.666,0 v -7.845 c 0,-0.967 0.783,-1.75 1.75,-1.75 z"
             inkscape:connector-curvature="0"
             style="fill:#ff4b4b" />
        </g>
      </g>
    </svg>
    <svg
       id="svg46"
       version="1.1"
       viewBox="0 0 82 66"
       height="66"
       width="82"
       y="132"
       x="0">
      <title
         id="title34">fr</title>
      <g
         id="g44"
         style="fill:none;fill-rule:evenodd;stroke:none;stroke-width:1">
        <g
           id="g42"
           style="fill-rule:nonzero">
          <path
             id="path36"
             d="m 18.563,4 h 44.874 c 4.285,0 6.348,0.399 8.493,1.545 a 10.904,10.904 0 0 1 4.525,4.525 C 77.6,12.215 78,14.278 78,18.563 v 28.874 c 0,4.285 -0.399,6.348 -1.545,8.493 A 10.904,10.904 0 0 1 71.93,60.455 C 69.785,61.6 67.722,62 63.437,62 H 18.563 C 14.278,62 12.215,61.601 10.07,60.455 A 10.904,10.904 0 0 1 5.545,55.93 C 4.4,53.785 4,51.722 4,47.437 V 18.563 C 4,14.278 4.399,12.215 5.545,10.07 A 10.904,10.904 0 0 1 10.07,5.545 C 12.215,4.4 14.278,4 18.563,4 Z"
             inkscape:connector-curvature="0"
             style="fill:#eeeeee;stroke:#ffffff;stroke-width:4" />
          <path
             id="path38"
             d="M 29.625,6 V 60 H 18.563 c -4.368,0 -5.953,-0.455 -7.55,-1.309 A 8.905,8.905 0 0 1 7.309,54.987 C 6.455,53.39 6,51.805 6,47.437 V 18.563 C 6,14.195 6.455,12.61 7.309,11.013 A 8.905,8.905 0 0 1 11.013,7.309 C 12.61,6.455 14.195,6 18.563,6 Z"
             inkscape:connector-curvature="0"
             style="fill:#1cb0f6" />
          <path
             id="path40"
             d="m 52.375,6 h 11.062 c 4.368,0 5.953,0.455 7.55,1.309 a 8.905,8.905 0 0 1 3.704,3.704 C 75.545,12.61 76,14.195 76,18.563 v 28.874 c 0,4.368 -0.455,5.953 -1.309,7.55 a 8.905,8.905 0 0 1 -3.704,3.704 C 69.39,59.545 67.805,60 63.437,60 H 52.375 Z"
             inkscape:connector-curvature="0"
             style="fill:#ff4b4b" />
        </g>
      </g>
    </svg>
  </g>
</svg>
