<?xml version="1.0" encoding="UTF-8" standalone="no"?>
<!-- Created with Inkscape (http://www.inkscape.org/) -->

<svg
   xmlns:dc="http://purl.org/dc/elements/1.1/"
   xmlns:cc="http://creativecommons.org/ns#"
   xmlns:rdf="http://www.w3.org/1999/02/22-rdf-syntax-ns#"
   xmlns:svg="http://www.w3.org/2000/svg"
   xmlns="http://www.w3.org/2000/svg"
   xmlns:sodipodi="http://sodipodi.sourceforge.net/DTD/sodipodi-0.dtd"
   xmlns:inkscape="http://www.inkscape.org/namespaces/inkscape"
   width="47.607719mm"
   height="269.16806mm"
   viewBox="0 0 47.607719 269.16807"
   version="1.1"
   id="svg8"
   inkscape:version="0.92.1 r15371"
   sodipodi:docname="social-sprite.svg">
  <defs
     id="defs2">
    <linearGradient
       gradientTransform="matrix(0.08600019,0,0,-0.08471906,-57.640076,146.18237)"
       y2="549.71997"
       x2="275.517"
       y1="4.5700002"
       x1="275.517"
       gradientUnits="userSpaceOnUse"
       id="SVGID_1_">
      <stop
         id="stop326"
         style="stop-color:#E09B3D"
         offset="0" />
      <stop
         id="stop328"
         style="stop-color:#C74C4D"
         offset="0.3" />
      <stop
         id="stop330"
         style="stop-color:#C21975"
         offset="0.6" />
      <stop
         id="stop332"
         style="stop-color:#7024C4"
         offset="1" />
    </linearGradient>
    <linearGradient
       gradientTransform="matrix(0.06995702,0,0,-0.06995702,-53.151072,141.58484)"
       y2="549.71997"
       x2="275.517"
       y1="4.5700002"
       x1="275.517"
       gradientUnits="userSpaceOnUse"
       id="SVGID_2_">
      <stop
         id="stop337"
         style="stop-color:#E09B3D"
         offset="0" />
      <stop
         id="stop339"
         style="stop-color:#C74C4D"
         offset="0.3" />
      <stop
         id="stop341"
         style="stop-color:#C21975"
         offset="0.6" />
      <stop
         id="stop343"
         style="stop-color:#7024C4"
         offset="1" />
    </linearGradient>
    <linearGradient
       gradientTransform="matrix(0.06995702,0,0,-0.06995702,-51.708747,139.74114)"
       y2="549.71997"
       x2="418.31"
       y1="4.5700002"
       x1="418.31"
       gradientUnits="userSpaceOnUse"
       id="SVGID_3_">
      <stop
         id="stop348"
         style="stop-color:#E09B3D"
         offset="0" />
      <stop
         id="stop350"
         style="stop-color:#C74C4D"
         offset="0.3" />
      <stop
         id="stop352"
         style="stop-color:#C21975"
         offset="0.6" />
      <stop
         id="stop354"
         style="stop-color:#7024C4"
         offset="1" />
    </linearGradient>
  </defs>
  <sodipodi:namedview
     id="base"
     pagecolor="#ffffff"
     bordercolor="#666666"
     borderopacity="1.0"
     inkscape:pageopacity="0.0"
     inkscape:pageshadow="2"
     inkscape:zoom="0.98994949"
     inkscape:cx="-148.48537"
     inkscape:cy="936.75205"
     inkscape:document-units="mm"
     inkscape:current-layer="layer1"
     showgrid="false"
     inkscape:window-width="1366"
     inkscape:window-height="704"
     inkscape:window-x="0"
     inkscape:window-y="27"
     inkscape:window-maximized="1"
     fit-margin-top="0"
     fit-margin-left="0"
     fit-margin-right="0"
     fit-margin-bottom="0" />
  <metadata
     id="metadata5">
    <rdf:RDF>
      <cc:Work
         rdf:about="">
        <dc:format>image/svg+xml</dc:format>
        <dc:type
           rdf:resource="http://purl.org/dc/dcmitype/StillImage" />
        <dc:title />
      </cc:Work>
    </rdf:RDF>
  </metadata>
  <g
     inkscape:label="Layer 1"
     inkscape:groupmode="layer"
     id="layer1"
     transform="translate(58.993085,40.228092)">
    <g
       id="g319"
       transform="matrix(0.94488185,0,0,0.94488185,-3.1797234,4.4996006)">
      <path
         id="path346"
         d="m -33.876727,112.13293 c -5.4975,0 -9.970063,4.47256 -9.970063,9.97 0,5.49743 4.472563,9.97006 9.970063,9.97006 5.497502,0 9.970068,-4.47257 9.970068,-9.97006 0,-5.49751 -4.472566,-9.97 -9.970068,-9.97 z m 0,16.06213 c -3.364581,0 -6.092064,-2.72749 -6.092064,-6.09207 0,-3.36458 2.727553,-6.09206 6.092064,-6.09206 3.364587,0 6.092068,2.72748 6.092068,6.09206 0,3.36452 -2.727555,6.09207 -6.092068,6.09207 z"
         style="fill:url(#SVGID_2_);stroke-width:0.06995703"
         inkscape:connector-curvature="0" />
      <path
         sodipodi:nodetypes="ssssssscssssssssss"
         id="path335"
         d="m -24.368492,99.248004 h -19.154136 c -7.784393,0 -14.117448,6.238716 -14.117448,13.907136 v 18.8688 c 0,7.66843 6.39671,13.57602 14.181091,13.58892 l 19.185958,0.0318 c 7.784383,0.0129 14.021983,-5.95232 14.021983,-13.62075 v -18.8688 c -8.8e-5,-7.66842 -6.333142,-13.907135 -14.117448,-13.907135 z m 8.900085,33.765986 c 0,5.08696 -3.736203,8.22077 -8.900085,8.22077 h -19.154136 c -5.163883,0 -8.975251,-3.31437 -8.900085,-8.40077 l 0.33366,-22.57821 c 0.07517,-5.08649 1.872451,-6.69392 7.03633,-6.68787 l 22.484342,0.0264 c 5.16388,0.006 7.099974,3.30376 7.099974,8.3908 z"
         style="fill:url(#SVGID_1_);stroke-width:0.08535723"
         inkscape:connector-curvature="0" />
      <circle
         id="circle357"
         r="2.3890324"
         cy="110.36408"
         cx="-22.445024"
         style="fill:url(#SVGID_3_);stroke-width:0.06995703" />
      <path
         id="path444"
         d="m -45.59694,102.67574 h 23.440428 c 4.092774,0 7.441407,3.34864 7.441407,7.44141 v 23.44044 c 0,4.09277 -3.348633,7.4414 -7.441407,7.4414 H -45.59694 c -4.092773,0 -7.441406,-3.34863 -7.441406,-7.4414 v -23.44044 c 0,-4.09277 3.348633,-7.44141 7.441406,-7.44141 z m 23.440428,-3.720686 H -45.59694 c -6.13916,0 -11.162109,5.022936 -11.162109,11.162096 v 23.44044 c 0,6.13915 5.022949,11.1621 11.162109,11.1621 h 23.440428 c 6.139162,0 11.162112,-5.02295 11.162112,-11.1621 v -23.44044 c 0,-6.13916 -5.022587,-11.162095 -11.162112,-11.162096 z m 0,0"
         inkscape:connector-curvature="0"
         style="fill:url(#b);fill-rule:evenodd;stroke-width:0.09301759" />
      <path
         id="path448"
         d="m -19.365983,110.11752 c 0,1.54097 -1.24956,2.79052 -2.790529,2.79052 -1.541327,0 -2.790525,-1.24955 -2.790525,-2.79052 0,-1.54133 1.249198,-2.79053 2.790525,-2.79053 1.540969,0 2.790529,1.2492 2.790529,2.79053 z m 0,0"
         inkscape:connector-curvature="0"
         style="fill:url(#c);fill-rule:evenodd;stroke-width:0.09301759" />
      <path
         id="path450"
         d="m -24.574967,121.83737 c 0,-5.13703 -4.164717,-9.30175 -9.301756,-9.30175 -5.137043,0 -9.30176,4.16434 -9.30176,9.30175 0,5.13704 4.164717,9.30176 9.30176,9.30176 5.137402,0 9.301756,-4.16472 9.301756,-9.30176 z m -9.301756,-5.58105 c 3.082295,0 5.581053,2.49875 5.581053,5.58105 0,3.0823 -2.498758,5.58106 -5.581053,5.58106 -3.082299,0 -5.581057,-2.49876 -5.581057,-5.58106 0,-3.0823 2.498758,-5.58105 5.581057,-5.58105 z m 0,0"
         inkscape:connector-curvature="0"
         style="fill:url(#d);fill-rule:evenodd;stroke-width:0.09301759" />
      <path
         inkscape:connector-curvature="0"
         d="m -22.156512,98.024874 h -13.580564 c -0.513777,0 -0.930176,0.4164 -0.930176,0.930181 0,0.513769 0.416399,0.93017 0.930176,0.93017 h 13.580564 c 5.641737,0 10.231936,4.589835 10.231936,10.231925 v 23.44044 c 0,5.64209 -4.590199,10.23193 -10.231936,10.23193 H -45.59694 c -5.641734,0 -10.231934,-4.58984 -10.231934,-10.23193 v -23.44044 c 0,-5.64209 4.5902,-10.231926 10.231934,-10.231926 h 2.418457 c 0.513777,0 0.930176,-0.4164 0.930176,-0.93017 0,-0.51378 -0.416399,-0.93018 -0.930176,-0.93018 h -2.418457 c -6.667834,0 -12.092285,5.424446 -12.092285,12.092276 v 23.44044 c 0,6.66783 5.424451,12.09228 12.092285,12.09228 h 23.440428 c 6.667836,0 12.092289,-5.42445 12.092289,-12.09228 v -23.44044 c 0,-6.66783 -5.424453,-12.092276 -12.092289,-12.092276 z m 0,0"
         id="path456"
         style="stroke-width:0.09301759" />
      <path
         inkscape:connector-curvature="0"
         d="m -24.574967,141.92917 h 2.418455 c 4.616,0 8.371584,-3.75559 8.371584,-8.37158 v -23.44044 c 0,-4.61599 -3.755584,-8.37158 -8.371584,-8.37158 H -45.59694 c -4.615998,0 -8.371582,3.75559 -8.371582,8.37158 v 23.44044 c 0,4.61599 3.755584,8.37158 8.371582,8.37158 h 13.580565 c 0.51378,0 0.930177,-0.4164 0.930177,-0.93018 0,-0.51378 -0.416397,-0.93017 -0.930177,-0.93017 H -45.59694 c -3.590261,0 -6.511231,-2.92098 -6.511231,-6.51123 v -23.44044 c 0,-3.59026 2.92097,-6.51122 6.511231,-6.51122 h 23.440428 c 3.590262,0 6.511231,2.92096 6.511231,6.51122 v 23.44044 c 0,3.59025 -2.920969,6.51123 -6.511231,6.51123 h -2.418455 c -0.513777,0 -0.930177,0.41639 -0.930177,0.93017 0,0.51378 0.4164,0.93018 0.930177,0.93018 z m 0,0"
         id="path458"
         style="stroke-width:0.09301759" />
      <path
         inkscape:connector-curvature="0"
         d="m -23.644791,121.83737 c 0,-5.64174 -4.5902,-10.23193 -10.231932,-10.23193 -5.641736,0 -10.231935,4.59019 -10.231935,10.23193 0,5.64173 4.590199,10.23193 10.231935,10.23193 5.641732,0 10.231932,-4.5902 10.231932,-10.23193 z m -10.231932,8.37159 c -4.615999,0 -8.371584,-3.75559 -8.371584,-8.37159 0,-4.616 3.755585,-8.37158 8.371584,-8.37158 4.615995,0 8.371579,3.75558 8.371579,8.37158 0,4.616 -3.755584,8.37159 -8.371579,8.37159 z m 0,0"
         id="path460"
         style="stroke-width:0.09301759" />
      <path
         inkscape:connector-curvature="0"
         d="m -33.876723,115.32614 c -3.590262,0 -6.511232,2.92097 -6.511232,6.51123 0,3.59027 2.92097,6.51123 6.511232,6.51123 3.590258,0 6.51123,-2.92096 6.51123,-6.51123 0,-3.59026 -2.920972,-6.51123 -6.51123,-6.51123 z m 0,11.1621 c -2.564526,0 -4.650881,-2.08634 -4.650881,-4.65087 0,-2.56452 2.086355,-4.65088 4.650881,-4.65088 2.56452,0 4.650877,2.08636 4.650877,4.65088 0,2.56453 -2.086357,4.65087 -4.650877,4.65087 z m 0,0"
         id="path462"
         style="stroke-width:0.09301759" />
      <path
         inkscape:connector-curvature="0"
         d="m -18.435807,110.11752 c 0,-2.05183 -1.66923,-3.7207 -3.720705,-3.7207 -2.051833,0 -3.720701,1.66887 -3.720701,3.7207 0,2.05147 1.668868,3.72071 3.720701,3.72071 2.051475,0 3.720705,-1.66924 3.720705,-3.72071 z m -5.581054,0 c 0,-1.0261 0.834615,-1.86035 1.860349,-1.86035 1.025738,0 1.860353,0.83425 1.860353,1.86035 0,1.02574 -0.834615,1.86035 -1.860353,1.86035 -1.025734,0 -1.860349,-0.83461 -1.860349,-1.86035 z m 0,0"
         id="path464"
         style="stroke-width:0.09301759" />
      <path
         inkscape:connector-curvature="0"
         d="m -39.457416,99.885224 c 0.513776,0 0.930176,-0.4164 0.930176,-0.93017 0,-0.51378 -0.4164,-0.93018 -0.930176,-0.93018 h -7.39e-4 c -0.513397,0 -0.929796,0.4164 -0.929796,0.930181 0,0.513769 0.416763,0.93017 0.93054,0.93017 z m 0,0"
         id="path466"
         style="stroke-width:0.09301759" />
      <path
         inkscape:connector-curvature="0"
         d="m -28.296033,140.06882 c -0.513779,0 -0.929813,0.41639 -0.929813,0.93017 0,0.51378 0.416764,0.93018 0.930539,0.93018 0.513776,0 0.930176,-0.4164 0.930176,-0.93018 0,-0.51378 -0.4164,-0.93017 -0.930176,-0.93017 z m 0,0"
         id="path468"
         style="stroke-width:0.09301759" />
    </g>
    <g
       id="g304"
       transform="matrix(0.94488189,0,0,0.94488189,-3.179722,6.1593463)">
      <path
         id="path1480"
         d="m -12.854749,189.08133 h -42.043947 c -1.023193,0 -1.860351,0.83715 -1.860351,1.86035 v 42.04395 c 0,1.02318 0.837158,1.86035 1.860351,1.86035 h 42.043946 c 1.023194,0 1.860349,-0.83717 1.860349,-1.86035 v -42.04395 c 0,-1.0232 -0.837155,-1.86035 -1.860348,-1.86035 z m 0,0"
         inkscape:connector-curvature="0"
         style="fill:#0274b3;fill-rule:evenodd;stroke-width:0.09301759" />
      <path
         id="path1482"
         d="m -42.248305,199.68533 c 0,2.19609 -1.780414,3.9765 -3.976501,3.9765 -2.196087,0 -3.976502,-1.78041 -3.976502,-3.9765 0,-2.19608 1.780415,-3.9765 3.976502,-3.9765 2.196087,0 3.976501,1.78042 3.976501,3.9765 z m 0,0"
         inkscape:connector-curvature="0"
         style="fill:#ffffff;fill-rule:evenodd;stroke-width:0.09301759" />
      <path
         id="path1484"
         d="m -49.643202,206.45236 h 6.836792 v 21.76612 h -6.836792 z m 0,0"
         inkscape:connector-curvature="0"
         style="fill:#ffffff;fill-rule:evenodd;stroke-width:0.09301759" />
      <path
         id="path1486"
         d="m -38.713638,206.45236 v 21.76612 h 6.836792 v -12.56319 c 0,-2.0591 1.684489,-3.74396 3.743957,-3.74396 2.059106,0 3.743959,1.68486 3.743959,3.74396 v 12.56319 h 6.83679 v -14.11542 c 0,-4.46376 -3.652029,-8.11579 -8.115784,-8.11579 -2.686607,0 -5.078541,1.32332 -6.557738,3.34973 v -2.88464 z m 0,0"
         inkscape:connector-curvature="0"
         style="fill:#ffffff;fill-rule:evenodd;stroke-width:0.09301759" />
      <path
         inkscape:connector-curvature="0"
         d="m -22.15651,233.9158 h -32.742186 c -0.51305,0 -0.930176,-0.41713 -0.930176,-0.93017 v -42.04395 c 0,-0.51305 0.417125,-0.93017 0.930176,-0.93017 h 1.860352 c 0.513776,0 0.930175,-0.41641 0.930175,-0.93018 0,-0.51378 -0.416399,-0.93018 -0.930175,-0.93018 h -1.860352 c -1.538787,0 -2.790528,1.25175 -2.790528,2.79053 v 42.04395 c 0,1.53878 1.25174,2.79052 2.790528,2.79052 h 32.742186 c 0.513414,0 0.930177,-0.4164 0.930177,-0.93017 0,-0.51378 -0.4164,-0.93018 -0.930177,-0.93018 z m 0,0"
         id="path1490"
         style="stroke-width:0.09301759" />
      <path
         inkscape:connector-curvature="0"
         d="m -12.854749,188.15115 h -32.742188 c -0.513778,0 -0.930177,0.4164 -0.930177,0.93018 0,0.51377 0.416399,0.93018 0.930177,0.93018 h 32.742188 c 0.51305,0 0.930176,0.41712 0.930176,0.93017 v 42.04395 c 0,0.51304 -0.417126,0.93017 -0.930176,0.93017 h -1.860352 c -0.513776,0 -0.930177,0.4164 -0.930177,0.93018 0,0.51377 0.416401,0.93017 0.930177,0.93017 h 1.860352 c 1.538788,0 2.790525,-1.2521 2.790525,-2.79052 v -42.04395 c 0,-1.53878 -1.251737,-2.79053 -2.790525,-2.79053 z m 0,0"
         id="path1492"
         style="stroke-width:0.09301759" />
      <path
         inkscape:connector-curvature="0"
         d="m -46.224806,204.59201 c 2.705503,0 4.906677,-2.20118 4.906677,-4.90668 0,-2.70587 -2.201173,-4.90668 -4.906677,-4.90668 -2.705867,0 -4.906678,2.20117 -4.906678,4.90668 0,2.7055 2.20081,4.90668 4.906678,4.90668 z m 0,-7.953 c 1.679766,0 3.046325,1.36655 3.046325,3.04632 0,1.67977 -1.366559,3.04633 -3.046325,3.04633 -1.679766,0 -3.046326,-1.36656 -3.046326,-3.04633 0,-1.67977 1.36656,-3.04632 3.046326,-3.04632 z m 0,0"
         id="path1494"
         style="stroke-width:0.09301759" />
      <path
         inkscape:connector-curvature="0"
         d="m -25.667923,205.0571 c -2.055832,0 -4.040086,0.71507 -5.627563,1.9788 v -0.58354 c 0,-0.51378 -0.416764,-0.93017 -0.930175,-0.93017 h -6.487977 c -0.513777,0 -0.930175,0.41639 -0.930175,0.93017 v 21.76612 c 0,0.51377 0.416398,0.93017 0.930175,0.93017 h 6.836792 c 0.513412,0 0.930176,-0.4164 0.930176,-0.93017 v -12.56319 c 0,-1.55151 1.26228,-2.81378 2.813781,-2.81378 1.551506,0 2.813782,1.26227 2.813782,2.81378 v 12.56319 c 0,0.51377 0.4164,0.93017 0.930177,0.93017 h 6.83679 c 0.513417,0 0.930177,-0.4164 0.930177,-0.93017 v -14.11542 c 0,-4.98807 -4.058255,-9.04596 -9.04596,-9.04596 z m 7.185611,22.2312 h -4.976441 v -11.63301 c 0,-2.57724 -2.096892,-4.67414 -4.674135,-4.67414 -2.577602,0 -4.674135,2.0969 -4.674135,4.67414 v 11.63301 h -4.976439 v -19.90577 h 4.627623 v 1.95447 c 0,0.40259 0.258706,0.7594 0.64168,0.88439 0.382244,0.12463 0.802276,-0.0109 1.039544,-0.3361 1.356749,-1.85817 3.527399,-2.96784 5.806692,-2.96784 3.961969,0 7.185611,3.22328 7.185611,7.18561 z m 0,0"
         id="path1496"
         style="stroke-width:0.09301759" />
      <path
         inkscape:connector-curvature="0"
         d="m -49.643202,205.52219 c -0.513777,0 -0.930177,0.41639 -0.930177,0.93017 v 21.76612 c 0,0.51377 0.416399,0.93017 0.930177,0.93017 h 6.836792 c 0.513413,0 0.930176,-0.4164 0.930176,-0.93017 v -21.76612 c 0,-0.51378 -0.416763,-0.93017 -0.930176,-0.93017 z m 5.906615,21.76611 h -4.976441 v -19.90577 h 4.976441 z m 0,0"
         id="path1498"
         style="stroke-width:0.09301759" />
      <path
         inkscape:connector-curvature="0"
         d="m -49.317278,190.01151 c 0.513413,0 0.930177,-0.41641 0.930177,-0.93018 0,-0.51378 -0.416764,-0.93018 -0.930177,-0.93018 h -7.4e-4 c -0.513776,0 -0.929813,0.4164 -0.929813,0.93018 0,0.51377 0.416763,0.93018 0.930539,0.93018 z m 0,0"
         id="path1500"
         style="stroke-width:0.09301759" />
      <path
         inkscape:connector-curvature="0"
         d="m -18.435441,233.9158 h -6.71e-4 c -0.513761,0 -0.929793,0.4164 -0.929793,0.93018 0,0.51377 0.416759,0.93017 0.930539,0.93017 0.513774,0 0.930176,-0.4164 0.930176,-0.93017 0,-0.51378 -0.416402,-0.93018 -0.930176,-0.93018 z m 0,0"
         id="path1502"
         style="stroke-width:0.09301759" />
    </g>
    <g
       id="g338"
       transform="matrix(0.88188969,0,0,0.88188969,-5.3136916,7.1259624)">
      <path
         style="fill:#2daae1;fill-rule:evenodd;stroke-width:0.10543703"
         inkscape:connector-curvature="0"
         d="m -33.876724,0.30580377 c 12.568837,0 22.758336,10.18909023 22.758336,22.75792523 0,0.993003 -0.06425,1.970766 -0.187398,2.929996 2.0749681,1.995478 3.3665719,4.799856 3.3665719,7.90613 0,6.057687 -4.9106449,10.968334 -10.9683319,10.968334 -1.85586,0 -3.603807,-0.461287 -5.135938,-1.274717 -2.976536,1.428342 -6.311395,2.228593 -9.83324,2.228593 -12.569246,0 -22.758335,-10.189089 -22.758335,-22.758336 0,-0.992591 0.06384,-1.970355 0.187398,-2.929585 -2.074967,-1.995889 -3.366572,-4.799855 -3.366572,-7.90613 0,-6.0576853 4.910648,-10.9687444 10.968334,-10.9687444 1.855858,0 3.603393,0.4616961 5.135525,1.2751286 2.976537,-1.428344 6.311808,-2.22859443 9.83365,-2.22859443 z m 0,0"
         id="path1526" />
      <path
         style="fill:#ffffff;fill-rule:evenodd;stroke-width:0.10543703"
         inkscape:connector-curvature="0"
         d="m -21.576012,12.210716 c 1.150747,1.570023 0.810959,3.775552 -0.758651,4.926298 -1.570024,1.150746 -3.77555,0.81096 -4.926298,-0.759064 -1.04366,-1.423811 -3.109157,-2.46212 -5.308094,-2.890457 -1.519365,-0.29613 -3.813857,-0.376032 -5.128114,0.586905 -1.422163,1.042427 -0.889624,2.627688 0.464172,3.384694 3.100094,1.73312 7.080342,1.448523 10.73975,3.667232 1.692758,1.025951 3.07662,2.483123 3.928352,4.119045 2.064261,3.963774 0.808487,8.607945 -2.761957,11.224925 -3.17217,2.324558 -7.481497,2.585679 -11.219157,1.777191 -3.716657,-0.804369 -7.312223,-2.795729 -9.369069,-5.602578 -1.150747,-1.569612 -0.810959,-3.775552 0.759065,-4.925887 1.570022,-1.150746 3.775551,-0.810958 4.926296,0.758653 1.007006,1.374388 3.005368,2.401163 5.174242,2.870276 1.616976,0.349672 4.154054,0.468289 5.56139,-0.563017 1.582789,-1.159808 0.723645,-2.814263 -0.642095,-3.642521 -1.172162,-0.710875 -2.799847,-1.084024 -4.427532,-1.457172 -2.021837,-0.463759 -4.044086,-0.927516 -6.091459,-2.072084 -3.315501,-1.853386 -5.560979,-5.634704 -4.812623,-9.476566 0.87974,-4.5136104 4.411881,-7.1454184 8.804816,-7.7590933 5.291622,-0.7392963 11.896674,1.4794124 15.086966,5.8332203 z m 0,0"
         id="path1528" />
      <path
         inkscape:connector-curvature="0"
         d="m -10.199109,25.610692 c 0.08937,-0.843908 0.135094,-1.698526 0.135094,-2.546551 0,-6.360819 -2.476948,-12.340663 -6.974496,-16.8382109 -4.497961,-4.4975484 -10.477806,-6.97449594 -16.838213,-6.97449594 -0.609145,0 -1.225703,0.023488 -1.832379,0.069607 -0.580728,0.044069 -1.015655,0.55066092 -0.971174,1.13138561 0.04407,0.58072803 0.551073,1.01524333 1.130976,0.97117413 0.553957,-0.042009 1.116563,-0.063427 1.672577,-0.063427 11.967517,0 21.703966,9.7360401 21.703966,21.7039671 0,0.932459 -0.06013,1.872742 -0.178749,2.795316 -0.04241,0.331139 0.07413,0.662689 0.315077,0.894156 1.962117,1.887158 3.0428463,4.425472 3.0428463,7.146242 0,5.466662 -4.4477123,9.913965 -9.9139623,9.913965 -1.609977,0 -3.146227,-0.373972 -4.565509,-1.11162 -0.516474,-0.268947 -1.153217,-0.06754 -1.421751,0.448929 -0.268535,0.51689 -0.06754,1.153218 0.449344,1.421754 1.698525,0.883035 3.613276,1.349677 5.537916,1.349677 6.629352,0 12.0227014,-5.393351 12.0227014,-12.022704 0,-3.121925 -1.1729849,-6.04492 -3.3142644,-8.289164 z m 0,0"
         id="path1530"
         style="stroke-width:0.10543703" />
      <path
         inkscape:connector-curvature="0"
         d="m -32.204147,44.704267 c -0.553957,0.04201 -1.11656,0.06343 -1.672577,0.06343 -11.967514,0 -21.703964,-9.736039 -21.703964,-21.703553 0,-0.932871 0.06013,-1.873155 0.178748,-2.795729 0.04242,-0.331138 -0.07454,-0.662688 -0.315076,-0.894156 -1.962116,-1.887157 -3.042846,-4.425472 -3.042846,-7.146241 0,-5.4666625 4.447301,-9.9143757 9.913963,-9.9143757 1.609974,0 3.145814,0.3743844 4.565506,1.1120308 0.516066,0.2685344 1.152806,0.067957 1.421753,-0.4489306 0.268535,-0.5168907 0.06754,-1.1536301 -0.449343,-1.4221646 -1.698524,-0.88303593 -3.613689,-1.34967818 -5.537916,-1.34967818 -6.629352,0 -12.022704,5.39376308 -12.022704,12.02311828 0,3.121924 1.172987,6.044919 3.314265,8.289163 -0.08937,0.843907 -0.135091,1.698524 -0.135091,2.546963 0,6.360406 2.476947,12.340251 6.974495,16.837799 4.49796,4.497548 10.477805,6.974495 16.83821,6.974495 0.609145,0 1.225706,-0.02348 1.832382,-0.06961 0.580728,-0.04407 1.015654,-0.550663 0.971174,-1.13139 -0.04407,-0.580726 -0.551487,-1.015244 -1.130979,-0.971174 z m 0,0"
         id="path1532"
         style="stroke-width:0.10543703" />
      <path
         inkscape:connector-curvature="0"
         d="m -37.073606,14.924896 c 0.92422,-0.677103 2.827031,-0.690283 4.302737,-0.40239 2.045724,0.398271 3.831151,1.348028 4.659409,2.479006 0.723232,0.986 1.787077,1.631802 2.995895,1.818377 1.208819,0.186161 2.41764,-0.109556 3.404053,-0.832789 0.986413,-0.72282 1.632214,-1.786663 1.818377,-2.995482 0.186572,-1.20882 -0.109147,-2.417638 -0.832378,-3.404051 -1.625625,-2.2187082 -4.196887,-4.0626206 -7.23891,-5.1919497 -2.900754,-1.0770241 -6.041625,-1.4538783 -8.844355,-1.0626088 -5.161061,0.7211746 -8.784635,3.9365911 -9.693617,8.6017685 -0.404037,2.072907 -0.06302,4.210479 0.986001,6.181245 0.971585,1.824966 2.51525,3.393755 4.346806,4.417235 2.179169,1.218292 4.309738,1.706762 6.370292,2.179581 1.518952,0.348026 3.089385,0.708405 4.116161,1.331143 0.563843,0.341846 0.969938,0.853792 0.986827,1.244651 0.0033,0.08072 0.01441,0.326608 -0.421338,0.645801 -1.015243,0.743827 -3.155695,0.719938 -4.715014,0.382622 -2.009891,-0.434927 -3.752073,-1.378507 -4.54697,-2.462944 -0.722819,-0.986412 -1.786664,-1.632214 -2.995894,-1.818376 -1.208408,-0.186162 -2.417638,0.109555 -3.40405,0.832376 -0.986003,0.723232 -1.631804,1.787076 -1.818378,2.995894 -0.186161,1.208819 0.109556,2.417638 0.832788,3.404051 2.09762,2.862863 5.834868,5.109578 9.996336,6.009911 1.365326,0.295306 2.711708,0.440282 4.010314,0.440282 3.086093,0 5.902415,-0.820432 8.054814,-2.397869 1.939875,-1.421341 3.3225,-3.445238 3.892932,-5.698954 0.581551,-2.295727 0.290775,-4.733133 -0.818785,-6.863291 -0.940698,-1.806021 -2.474062,-3.415996 -4.317153,-4.533793 -2.112036,-1.280483 -4.338157,-1.787898 -6.302746,-2.236006 -1.628505,-0.371089 -3.167229,-0.721997 -4.469129,-1.449759 -0.4444,-0.248354 -0.744236,-0.623561 -0.764829,-0.955936 -0.014,-0.226936 0.12397,-0.448107 0.409804,-0.657745 z m -2.514427,0.787071 c 0.06508,1.062196 0.753298,2.059729 1.840618,2.667228 1.566316,0.876033 3.327032,1.277188 5.029264,1.665163 1.89663,0.432457 3.857922,0.87974 5.67836,1.983534 1.517718,0.920103 2.775135,2.235595 3.539966,3.704711 1.795725,3.44812 0.788308,7.513624 -2.450174,9.887194 -2.572088,1.884687 -6.352582,2.46665 -10.372781,1.596793 -3.671762,-0.794072 -6.939898,-2.73642 -8.741801,-5.194832 -0.390034,-0.532128 -0.549425,-1.184519 -0.44893,-1.836499 0.100495,-0.652392 0.44893,-1.226118 0.981058,-1.616153 0.428338,-0.31384 0.934106,-0.478584 1.455114,-0.478584 0.126441,0 0.253708,0.0099 0.380973,0.02965 0.652391,0.100496 1.226118,0.44852 1.616153,0.980647 1.119443,1.527601 3.233951,2.722006 5.801919,3.277609 0.695224,0.15033 4.27226,0.821255 6.40736,-0.743002 0.867384,-0.635505 1.32249,-1.501653 1.281308,-2.438642 -0.0482,-1.104618 -0.814669,-2.237243 -2.00001,-2.955945 -1.31755,-0.799014 -3.056438,-1.197698 -4.738489,-1.583614 -2.004127,-0.459228 -3.89664,-0.893333 -5.812629,-1.964177 -3.142929,-1.757009 -4.907763,-5.192774 -4.291616,-8.354649 0.739296,-3.796145 3.624398,-6.3175727 7.915191,-6.9168323 5.235194,-0.7314704 11.293704,1.5951447 14.091081,5.4122953 0.390037,0.532128 0.549428,1.18452 0.448931,1.836499 -0.100494,0.651979 -0.448931,1.226118 -0.981057,1.616153 -0.532129,0.390033 -1.184107,0.549425 -1.836498,0.44893 -0.651982,-0.100495 -1.225707,-0.448519 -1.615739,-0.980646 -1.146218,-1.564258 -3.373163,-2.798612 -5.956783,-3.302322 -0.908158,-0.176689 -4.021022,-0.644153 -5.953073,0.771833 -0.876445,0.642095 -1.327024,1.525953 -1.267716,2.487655 z m 0,0"
         id="path1534"
         style="stroke-width:0.10543703" />
      <path
         inkscape:connector-curvature="0"
         d="m -39.803849,2.1455986 c 0.08443,0 0.170511,-0.010282 0.256591,-0.03172 0.564665,-0.1412698 0.908158,-0.7137587 0.76689,-1.27842499 -0.140857,-0.56507617 -0.71376,-0.90857016 -1.278424,-0.76730021 h -8.41e-4 c -0.565075,0.14126985 -0.908158,0.71375866 -0.766888,1.278425 0.119852,0.4789944 0.550249,0.7990139 1.022658,0.7990139 z m 0,0"
         id="path1536"
         style="stroke-width:0.10543703" />
      <path
         inkscape:connector-curvature="0"
         d="m -28.239961,44.023046 c -0.559723,0.159802 -0.884269,0.743413 -0.724054,1.303547 0.132207,0.462934 0.554367,0.76483 1.013183,0.76483 0.09596,0 0.193576,-0.01318 0.290363,-0.04078 l 3.36e-4,-4.23e-4 c 0.560133,-0.159803 0.883859,-0.743414 0.724054,-1.303136 -0.159801,-0.559722 -0.744235,-0.883859 -1.303959,-0.724055 z m 0,0"
         id="path1538"
         style="stroke-width:0.10543703" />
    </g>
    <g
       id="g291"
       transform="matrix(0.94488197,0,0,0.98596216,-3.1797192,-1.5268524)">
      <path
         style="fill:#2daae1;fill-rule:evenodd;stroke-width:0.09301776"
         inkscape:connector-curvature="0"
         d="m -25.050541,148.34139 c 2.669899,0 5.078187,1.11912 6.781938,2.91334 v -2.7e-4 c 0.680556,-0.0363 3.707632,-0.6355 6.075586,-2.29892 0,0 -0.119905,2.48751 -3.941265,5.18466 0,0 2.382492,-0.17951 5.13996,-1.39346 -1.014475,1.85999 -2.954767,3.80755 -4.705391,4.94557 0,22.32281 -23.225007,35.03499 -41.059344,23.31657 8.481693,0.79429 13.756454,-3.77631 13.756454,-3.77631 -7.058086,-0.2398 -8.736402,-6.47345 -8.736402,-6.47345 2.232789,0.23981 4.195973,-0.22491 4.195973,-0.22491 -8.017331,-1.96282 -7.4327,-9.23056 -7.4327,-9.23056 1.933025,1.19869 4.090964,1.15364 4.090964,1.15364 -7.042824,-5.48442 -2.787262,-12.4077 -2.787262,-12.4077 4.14474,4.94447 12.691836,10.43688 19.494123,9.68111 -0.145704,-0.65621 -0.223098,-1.33822 -0.223098,-2.03839 0,-5.1643 4.186164,-9.35083 9.350464,-9.35083 z m 0,0"
         id="path1557" />
      <path
         inkscape:connector-curvature="0"
         d="m -32.90073,182.69764 c -6.630059,2.68153 -13.852741,2.39158 -20.280414,-0.72271 6.606805,-0.48724 10.593851,-3.87113 10.78788,-4.039 0.288863,-0.25071 0.395325,-0.65258 0.267789,-1.01338 -0.127536,-0.36081 -0.463272,-0.60644 -0.845516,-0.61915 -2.620486,-0.089 -4.733733,-1.07516 -6.280879,-2.93115 -0.472719,-0.56719 -0.821173,-1.13547 -1.068978,-1.61401 1.666689,-0.0105 2.924973,-0.30266 2.992193,-0.31829 0.418216,-0.0992 0.714347,-0.47199 0.715801,-0.90184 0.0018,-0.42984 -0.291408,-0.80482 -0.708898,-0.90692 -5.092722,-1.24701 -6.351368,-4.79731 -6.648226,-6.81427 1.619817,0.59225 3.028528,0.57227 3.104831,0.57082 0.393509,-0.008 0.739419,-0.26343 0.863321,-0.63695 0.123903,-0.37389 -7.15e-4,-0.7852 -0.311391,-1.02683 -4.700304,-3.6604 -3.887852,-7.96683 -3.117912,-10.00776 0.642041,0.67837 1.350937,1.35347 2.118698,2.01659 0.388784,0.3361 0.975959,0.29322 1.312059,-0.0956 0.335736,-0.38879 0.293223,-0.97596 -0.09556,-1.3117 -1.095139,-0.94653 -2.058382,-1.91304 -2.863203,-2.87302 -0.192213,-0.22927 -0.482893,-0.35244 -0.780841,-0.33027 -0.298311,0.0218 -0.567917,0.18603 -0.72452,0.44074 -0.04832,0.0785 -1.18416,1.95264 -1.38255,4.56367 -0.139889,1.8411 0.176952,4.32134 2.059108,6.75688 -0.233271,-0.10501 -0.467996,-0.22782 -0.697633,-0.37026 -0.27542,-0.17077 -0.620239,-0.18603 -0.909467,-0.0396 -0.28959,0.14607 -0.481802,0.43239 -0.507964,0.75577 -0.0065,0.0832 -0.153334,2.06638 0.778297,4.31043 0.570098,1.3742 1.627084,3.02417 3.581911,4.30462 -0.03234,-0.003 -0.06431,-0.006 -0.09665,-0.01 -0.305578,-0.0324 -0.607159,0.0872 -0.806275,0.32048 -0.199479,0.23326 -0.271059,0.54974 -0.191486,0.84623 0.01926,0.0716 0.48798,1.77134 1.900324,3.49435 1.007935,1.22994 2.661543,2.65827 5.190463,3.31303 -2.164117,1.20196 -6.043247,2.75056 -11.125795,2.27421 -0.42512,-0.0389 -0.822989,0.2151 -0.964332,0.61843 -0.141707,0.40295 0.0098,0.8506 0.36662,1.08496 4.642531,3.05069 9.832994,4.60329 15.048892,4.60329 3.37589,0 6.763045,-0.65077 10.017575,-1.96718 0.476353,-0.19258 0.706354,-0.7347 0.51378,-1.21105 -0.192577,-0.47635 -0.734698,-0.70599 -1.211049,-0.51378 z m 0,0"
         id="path1559"
         style="stroke-width:0.09301776" />
      <path
         inkscape:connector-curvature="0"
         d="m -10.309407,152.11769 c -0.269606,-0.29322 -0.695453,-0.38224 -1.059894,-0.222 -0.540302,0.23799 -1.066433,0.43383 -1.560954,0.59516 1.529705,-1.84291 1.655789,-3.27669 1.665962,-3.49034 0.01744,-0.35463 -0.168959,-0.68819 -0.48035,-0.85969 -0.311027,-0.17113 -0.692546,-0.15042 -0.983225,0.0538 -1.841461,1.2939 -4.1858,1.91159 -5.201727,2.08237 -1.922488,-1.85164 -4.433242,-2.86539 -7.120946,-2.86539 -5.668995,0 -10.281006,4.61201 -10.281006,10.281 0,0.39315 0.02252,0.78666 0.06722,1.1769 -3.266885,0.0632 -6.573013,-1.2739 -8.860305,-2.47151 -0.455279,-0.23835 -1.017381,-0.0621 -1.255739,0.39278 -0.238358,0.45528 -0.06213,1.01738 0.392781,1.25574 2.747294,1.43778 6.870597,3.0576 10.912508,2.60886 0.26234,-0.0291 0.500334,-0.16859 0.65403,-0.3837 0.153336,-0.21474 0.208564,-0.48471 0.151156,-0.74268 -0.133714,-0.60062 -0.201295,-1.21868 -0.201295,-1.83639 0,-4.64325 3.77739,-8.42064 8.420648,-8.42064 2.33162,0 4.500461,0.93163 6.107197,2.62376 0.196936,0.20747 0.474173,0.30921 0.749954,0.28631 0.615155,-0.0389 2.238969,-0.35644 3.985231,-1.0846 -0.526859,0.68092 -1.307698,1.46794 -2.462789,2.2833 -0.341551,0.24126 -0.480353,0.68092 -0.339007,1.07443 0.141705,0.39387 0.528311,0.64458 0.945438,0.61296 0.06576,-0.005 1.086782,-0.0868 2.557988,-0.46944 -0.812088,0.88185 -1.759707,1.70266 -2.700059,2.31382 -0.264154,0.17186 -0.423304,0.46508 -0.423304,0.7801 0,8.57908 -3.666569,16.38022 -10.060086,21.40281 -0.403682,0.31721 -0.474173,0.90183 -0.156605,1.30588 0.183493,0.23364 0.456368,0.35572 0.732153,0.35572 0.200932,0 0.403682,-0.065 0.574093,-0.19875 3.264705,-2.56489 5.960766,-5.90372 7.796413,-9.65604 1.904683,-3.8933 2.903172,-8.16812 2.970753,-12.714 1.860357,-1.31024 3.630964,-3.22728 4.595296,-4.9957 0.1907599,-0.34955 0.13771,-0.78158 -0.131532,-1.0748 z m 0,0"
         id="path1561"
         style="stroke-width:0.09301776" />
      <path
         inkscape:connector-curvature="0"
         d="m -29.64184,181.10326 -8.58e-4,2.7e-4 c -0.452372,0.24381 -0.621328,0.80737 -0.377885,1.25974 0.168233,0.31212 0.488707,0.48944 0.820083,0.48944 0.148974,0 0.300129,-0.0359 0.440382,-0.11155 0.45237,-0.24345 0.621329,-0.80773 0.377883,-1.25974 -0.243444,-0.45237 -0.807727,-0.62169 -1.259736,-0.37825 z m 0,0"
         id="path1563"
         style="stroke-width:0.09301776" />
      <path
         inkscape:connector-curvature="0"
         d="m -48.280634,156.06441 c 0.161328,0.11155 0.34591,0.16532 0.528312,0.16532 0.29504,0 0.584994,-0.13989 0.765579,-0.40077 0.292498,-0.42258 0.187126,-1.00176 -0.235088,-1.29426 l -7.42e-4,-2.7e-4 c -0.422213,-0.2925 -1.001395,-0.18676 -1.293892,0.23545 -0.292497,0.42257 -0.186762,1.00212 0.235815,1.29462 z m 0,0"
         id="path1565"
         style="stroke-width:0.09301776" />
    </g>
    <g
       id="g329"
       transform="matrix(0.95050808,0,0,0.95050808,-2.9891256,3.9287359)">
      <path
         id="path1582"
         d="m -33.796029,53.289034 c 10.461567,0 18.939974,8.47877 18.939974,18.940339 0,10.461571 -8.478407,18.939978 -18.939974,18.939978 -3.188397,0 -6.301215,-0.788833 -9.096829,-2.323625 l -1.313873,-0.721248 -7.062069,1.908678 1.925392,-6.870947 -0.800824,-1.364379 c -1.707744,-2.910434 -2.592138,-6.194388 -2.592138,-9.568457 0,-10.461569 8.478769,-18.940339 18.940341,-18.940339 z m -10.887054,38.818123 c 3.230907,1.773874 6.941073,2.782894 10.887054,2.782894 12.515223,0 22.660679,-10.145452 22.660679,-22.660678 0,-12.515586 -10.145456,-22.661041 -22.660679,-22.661041 -12.515588,0 -22.661044,10.145455 -22.661044,22.661041 0,4.177799 1.131836,8.091078 3.104098,11.451699 l -3.265062,11.651905 z m 0,0"
         inkscape:connector-curvature="0"
         style="fill:#ffffff;fill-rule:evenodd;stroke-width:0.09301758" />
      <path
         id="path1584"
         d="m -14.856055,72.229373 c 0,-10.461569 -8.478407,-18.940339 -18.939974,-18.940339 -10.461572,0 -18.940341,8.47877 -18.940341,18.940339 0,3.374069 0.884394,6.658023 2.592502,9.568457 l 0.80046,1.364379 -1.925392,6.870947 7.062069,-1.908678 1.314236,0.721248 c 2.795251,1.534792 5.908069,2.323625 9.096466,2.323625 10.461567,0 18.939974,-8.478407 18.939974,-18.939978 z M -39.19977,71.263226 c 0.852056,1.475926 2.33961,3.134619 3.714527,4.199234 1.66087,1.285895 4.26609,2.975475 5.11306,2.226246 0.399684,-0.353538 1.499544,-1.94719 1.645975,-2.06092 0.146791,-0.114093 0.63477,-0.929088 1.786955,-0.370617 1.151819,0.558832 4.025916,1.984615 4.025916,1.984615 0,0 0.622781,0.251442 0.596256,1.227397 -0.02615,0.975597 -0.06868,1.225579 -0.06868,1.225579 0,0 -0.417489,3.346089 -4.984798,3.479439 -2.067459,0.06031 -4.461574,-0.782656 -6.582809,-1.864711 -3.620781,-1.846182 -5.88227,-3.886756 -8.300727,-7.060614 -1.642342,-2.155029 -3.282867,-4.986615 -2.992914,-7.50354 0.50324,-4.367102 3.280323,-4.769694 3.280323,-4.769694 0,0 0.251438,-0.03016 1.227759,-0.01017 0.975958,0.01998 1.197238,0.654029 1.197238,0.654029 0,0 1.348392,3.079391 1.851631,4.256644 0.50324,1.177254 -0.04033,1.690305 -0.160964,1.831284 -0.120632,0.14098 -0.845151,0.996305 -1.217585,1.37855 -0.372434,0.382244 -0.283776,0.912371 -0.13117,1.177253 z m 0,0"
         inkscape:connector-curvature="0"
         style="fill:#2bb140;fill-rule:evenodd;stroke-width:0.09301758" />
      <path
         id="path1586"
         d="m -37.690415,66.875777 c -0.502876,-1.177254 -1.851267,-4.256281 -1.851267,-4.256281 0,0 -0.22128,-0.634045 -1.197601,-0.65403 -0.975958,-0.01998 -1.22776,0.01017 -1.22776,0.01017 0,0 -2.777083,0.402592 -3.280322,4.769694 -0.289954,2.516925 1.350571,5.348148 2.992913,7.50354 2.41882,3.173858 4.680309,5.214432 8.300728,7.060614 2.121598,1.081692 4.515713,1.925027 6.583172,1.864711 4.567309,-0.13335 4.984798,-3.479439 4.984798,-3.479439 0,0 0.04215,-0.249982 0.06868,-1.225941 0.02651,-0.975593 -0.596256,-1.227035 -0.596256,-1.227035 0,0 -2.874097,-1.425782 -4.026282,-1.984615 -1.151819,-0.558834 -1.640161,0.256524 -1.786589,0.370254 -0.146431,0.114093 -1.246654,1.707745 -1.646341,2.061283 -0.846604,0.749229 -3.452187,-0.940351 -5.113057,-2.226246 -1.374554,-1.064615 -2.862108,-2.723308 -3.714164,-4.199233 -0.152971,-0.264881 -0.241627,-0.79501 0.130806,-1.177616 0.372434,-0.382245 1.096953,-1.237571 1.217586,-1.378187 0.120995,-0.140979 0.664203,-0.65403 0.160963,-1.831647 z m 0,0"
         inkscape:connector-curvature="0"
         style="fill:#ffffff;fill-rule:evenodd;stroke-width:0.09301758" />
      <path
         inkscape:connector-curvature="0"
         d="m -17.114635,55.547618 c -4.455761,-4.455397 -10.380181,-6.909463 -16.681394,-6.909463 -4.956095,0 -9.699626,1.520257 -13.717549,4.396897 -0.417853,0.299038 -0.514141,0.880034 -0.215103,1.297886 0.2994,0.417853 0.880396,0.513778 1.297885,0.21474 3.700356,-2.64882 8.069275,-4.049171 12.634767,-4.049171 11.98219,0 21.730502,9.748315 21.730502,21.730866 0,11.982189 -9.748312,21.730506 -21.730502,21.730506 -3.650214,0 -7.260096,-0.922549 -10.439407,-2.66808 -0.211106,-0.115544 -0.458547,-0.144976 -0.690364,-0.08248 l -10.354746,2.798519 2.823229,-10.075692 c 0.06831,-0.243443 0.03452,-0.503967 -0.09338,-0.721612 -1.947192,-3.31811 -2.976199,-7.115119 -2.976199,-10.981163 0,-4.565853 1.40035,-8.934772 4.049172,-12.634764 0.299036,-0.417489 0.202748,-0.998485 -0.21474,-1.297522 -0.417853,-0.299037 -0.99885,-0.203112 -1.297886,0.21474 -2.876642,4.017559 -4.396897,8.761092 -4.396897,13.717546 0,4.063345 1.047537,8.056923 3.033244,11.577056 l -3.15969,11.275475 c -0.09048,0.322291 -3.7e-4,0.668201 0.234724,0.905831 0.177315,0.178403 0.416036,0.275419 0.660933,0.275419 0.08103,0 0.162418,-0.01055 0.242718,-0.03233 L -44.7979,93.102015 c 3.370797,1.779325 7.16635,2.71822 11.001509,2.71822 6.301576,0 12.225996,-2.453701 16.68139,-6.909824 4.45576,-4.455395 6.909828,-10.379815 6.909828,-16.681394 0,-6.301213 -2.453705,-12.225269 -6.909461,-16.681392 z m 0,0"
         id="path1590"
         style="stroke-width:0.09301758" />
      <path
         inkscape:connector-curvature="0"
         d="m -18.548779,83.504847 c 0.427301,0.28523 1.005024,0.170049 1.290256,-0.257252 2.1801,-3.266515 3.332644,-7.076602 3.332644,-11.018585 0,-5.307815 -2.066732,-10.298062 -5.81941,-14.05074 -3.75268,-3.752677 -8.742562,-5.819412 -14.05074,-5.819412 -5.308179,0 -10.298427,2.066735 -14.051105,5.819412 -3.752677,3.752678 -5.819411,8.742925 -5.819411,14.051103 0,3.535395 0.940712,7.006839 2.720399,10.039357 l 0.600255,1.023194 -1.818566,6.490158 c -0.09048,0.321928 -7.39e-4,0.667834 0.234724,0.905465 0.23545,0.237634 0.580633,0.330651 0.903651,0.243447 l 6.700172,-1.810938 0.985405,0.541028 c 2.906072,1.595471 6.206379,2.438443 9.544113,2.438443 3.942344,0 7.752434,-1.152545 11.018583,-3.333008 0.427301,-0.284868 0.542482,-0.862595 0.257254,-1.289894 -0.285231,-0.4273 -0.862596,-0.542482 -1.289894,-0.25725 -2.959486,1.975534 -6.412399,3.019799 -9.985943,3.019799 -3.025616,0 -6.016349,-0.763762 -8.648819,-2.208802 l -1.313873,-0.721615 c -0.210744,-0.115544 -0.458184,-0.144976 -0.690365,-0.08248 l -5.482223,1.481741 1.483921,-5.295097 c 0.06794,-0.243444 0.03452,-0.503967 -0.09338,-0.721614 l -0.800823,-1.364379 c -1.612184,-2.74729 -2.464239,-5.893171 -2.464239,-9.097919 0,-9.930714 8.079447,-18.009798 18.010165,-18.009798 9.930715,0 18.009798,8.079084 18.009798,18.010161 0,3.572822 -1.044265,7.025735 -3.019799,9.985585 -0.285231,0.427297 -0.17005,1.004661 0.257251,1.289889 z m 0,0"
         id="path1592"
         style="stroke-width:0.09301758" />
      <path
         inkscape:connector-curvature="0"
         d="m -37.195532,69.37199 0.06141,-0.07158 c 0.833161,-0.935263 0.622782,-2.03367 0.2994,-2.790164 -0.477805,-1.117302 -1.727728,-3.973232 -1.84618,-4.243564 -0.184582,-0.466541 -0.80046,-1.205594 -2.039121,-1.231392 -0.965783,-0.01962 -1.28335,0.0076 -1.357474,0.01672 -0.0076,7.39e-4 -0.01526,0.0018 -0.02253,0.0029 -0.142433,0.02072 -3.492518,0.562829 -4.070971,5.583962 -0.265971,2.308361 0.803003,5.058193 3.177131,8.173919 2.628474,3.44928 5.04475,5.503295 8.617931,7.325133 1.779325,0.907286 4.378369,1.969357 6.797913,1.969357 0.07849,0 0.156969,-0.001 0.234724,-0.0036 2.717494,-0.07921 4.168714,-1.208503 4.907406,-2.141948 0.784108,-0.990855 0.947979,-1.967177 0.971597,-2.136498 0.01562,-0.107554 0.05341,-0.446921 0.07739,-1.330951 0.03343,-1.238661 -0.675832,-1.889056 -1.132925,-2.095803 -0.258342,-0.128263 -2.921697,-1.448676 -4.013563,-1.978077 -0.737237,-0.357899 -1.821109,-0.562102 -2.796705,0.496337 -0.005,0.0054 -0.0098,0.01089 -0.01454,0.01562 -0.131894,0.115181 -0.262338,0.287045 -0.658752,0.817535 -0.244173,0.326653 -0.731423,0.978502 -0.938533,1.19615 -0.437476,0.03088 -1.900322,-0.613335 -3.97396,-2.218977 -1.306966,-1.012294 -2.702594,-2.588144 -3.474712,-3.92309 -0.0076,-0.0189 -0.01235,-0.05342 -0.01017,-0.07086 0.32011,-0.329195 0.841154,-0.934173 1.205231,-1.361109 z m 1.140556,6.825892 c 0.619874,0.479986 1.835278,1.374187 3.010353,1.970447 0.555564,0.281595 2.246228,1.139463 3.288679,0.216918 0.287775,-0.254707 0.696544,-0.791376 1.242293,-1.521707 0.157332,-0.21038 0.350634,-0.468722 0.425483,-0.558108 0.04869,-0.04433 0.08902,-0.08794 0.125722,-0.127899 0.167503,-0.181673 0.243806,-0.264519 0.616968,-0.08357 1.120569,0.543571 3.916184,1.930113 4.016467,1.979528 0.03452,0.03452 0.0883,0.146795 0.08211,0.370255 -0.0207,0.771027 -0.05086,1.049716 -0.05705,1.10204 -0.004,0.01926 -0.002,0.0076 -0.0044,0.0287 -0.01089,0.06322 -0.127899,0.686733 -0.640583,1.298976 -0.723067,0.864047 -1.883242,1.325139 -3.448555,1.370555 -2.092895,0.06213 -4.489914,-0.925089 -6.13371,-1.763337 -3.344272,-1.705564 -5.50802,-3.547385 -7.983523,-6.795731 -2.04348,-2.681523 -3.014714,-5.04475 -2.808695,-6.833522 0.388058,-3.36789 2.233875,-3.896927 2.481317,-3.952884 0.0872,-0.0054 0.382244,-0.0178 1.083508,-0.0032 0.223461,0.0048 0.33283,0.06395 0.365894,0.09992 0.04615,0.105371 1.357475,3.100827 1.846907,4.246106 0.244535,0.572277 0.09447,0.740871 0.02217,0.821897 -0.01308,0.01454 -0.02435,0.02761 -0.03416,0.03852 l -0.05342,0.06287 c -0.537395,0.629685 -0.915642,1.058075 -1.124205,1.272087 -0.686731,0.705625 -0.621692,1.682309 -0.269969,2.291284 0.894567,1.550048 2.445345,3.304302 3.95034,4.469928 z m 0,0"
         id="path1594"
         style="stroke-width:0.09301758" />
      <path
         inkscape:connector-curvature="0"
         d="m -49.81976,57.135456 c 0.22346,0 0.447647,-0.07993 0.625688,-0.24199 0.380064,-0.345546 0.408406,-0.933809 0.06286,-1.313874 -0.345909,-0.380064 -0.933809,-0.408042 -1.314237,-0.06249 l -3.69e-4,3.7e-4 c -0.380065,0.345546 -0.407679,0.933446 -0.06213,1.313874 0.183492,0.201659 0.435294,0.304123 0.688185,0.304123 z m 0,0"
         id="path1596"
         style="stroke-width:0.09301758" />
      <path
         inkscape:connector-curvature="0"
         d="m -21.091502,84.996037 -3.37e-4,6.71e-4 c -0.345543,0.380064 -0.317203,0.967966 0.06286,1.313509 0.178044,0.162056 0.401868,0.241992 0.625325,0.241992 0.252892,0 0.50506,-0.102829 0.68855,-0.304851 0.34591,-0.380063 0.317567,-0.968328 -0.06249,-1.313872 -0.380064,-0.345547 -0.968329,-0.317566 -1.313876,0.06249 z m 0,0"
         id="path1598"
         style="stroke-width:0.09301758" />
    </g>
    <path
       inkscape:connector-curvature="0"
       id="path8-3"
       d="m -23.102548,-0.8705927 c -3.537597,2.5412748 -7.716865,3.884697 -12.086677,3.884697 -11.437112,0 -20.742187,-9.3047331 -20.742187,-20.7421873 0,-4.369812 1.343078,-8.54908 3.884352,-12.086677 0.283243,-0.394135 0.193292,-0.943452 -0.200843,-1.22635 -0.394134,-0.283241 -0.943451,-0.19329 -1.226692,0.200844 -2.757225,3.838005 -4.21463,8.372268 -4.21463,13.112183 0,6.009865 2.340432,11.6602706 6.59008,15.9099195 4.249649,4.2496488 9.900055,6.5900803 15.90992,6.5900803 4.739914,0 9.274178,-1.457405 13.112183,-4.21497328 0.394478,-0.28324166 0.484428,-0.83221434 0.201187,-1.22634933 -0.283242,-0.39447779 -0.832215,-0.48442849 -1.226693,-0.20118689 z m 0,0"
       style="stroke-width:0.08789062;fill:#000000" />
    <path
       inkscape:connector-curvature="0"
       id="path10-5"
       d="m -19.279306,-33.638003 c -4.249648,-4.249649 -9.900054,-6.59008 -15.909919,-6.59008 -4.739571,0 -9.273835,1.457404 -13.112526,4.214973 -0.394135,0.283242 -0.484086,0.832558 -0.201187,1.226692 0.283242,0.394135 0.832558,0.484429 1.226692,0.201188 3.537941,-2.541619 7.717552,-3.88504 12.087021,-3.88504 11.437454,0 20.742187,9.305075 20.742187,20.742187 0,4.369125 -1.343422,8.5487359 -3.884697,12.0866769 -0.28324,0.3944778 -0.192946,0.9434513 0.201188,1.2266929 0.155181,0.1115792 0.334396,0.1651379 0.511894,0.1651379 0.273285,0 0.543136,-0.1273729 0.714797,-0.366325 2.757226,-3.8386922 4.214631,-8.3726127 4.214631,-13.1121827 0,-6.009865 -2.340432,-11.660271 -6.590081,-15.90992 z m 0,0"
       style="stroke-width:0.08789062;fill:#000000" />
    <path
       inkscape:connector-curvature="0"
       id="path12-6"
       d="m -50.478074,-32.137339 c 0.22522,0 0.45044,-0.08617 0.621757,-0.257836 0.343323,-0.342979 0.343323,-0.899505 0,-1.242828 -0.342979,-0.343323 -0.899505,-0.343323 -1.242828,0 l -3.51e-4,3.52e-4 c -0.343323,0.343323 -0.342979,0.899505 0,1.242827 0.171661,0.171663 0.396538,0.257493 0.621414,0.257493 z m 0,0"
       style="stroke-width:0.08789062;fill:#000000" />
    <path
       inkscape:connector-curvature="0"
       id="path14-2"
       d="m -20.550973,-3.0311227 -3.51e-4,3.515e-4 c -0.3265,0.3591146 -0.299721,0.9149547 0.0594,1.2414551 0.168228,0.1531214 0.379715,0.2283091 0.590858,0.2283091 0.238953,0 0.477562,-0.096817 0.65094,-0.2877046 0.326501,-0.359115 0.300064,-0.9149547 -0.0594,-1.2414549 -0.359115,-0.3265001 -0.914955,-0.3000642 -1.241454,0.059055 z m 0,0"
       style="fill:#000000;fill-opacity:1;stroke-width:0.08789062" />
    <g
       id="g4956"
       style="fill:#ffffff;fill-opacity:1;stroke:#000000;stroke-opacity:1;stroke-width:20.24803124;stroke-miterlimit:4;stroke-dasharray:none"
       transform="matrix(0.08395878,0,0,0.08395878,-53.599118,-36.665426)">
      <path
         id="path4954"
         d="M 409.132,114.573 C 389.524,80.977 362.927,54.379 329.334,34.773 295.736,15.166 259.057,5.365 219.271,5.365 c -39.781,0 -76.472,9.804 -110.063,29.408 -33.596,19.605 -60.192,46.204 -79.8,79.8 C 9.803,148.168 0,184.854 0,224.63 c 0,47.78 13.94,90.745 41.827,128.906 27.884,38.164 63.906,64.572 108.063,79.227 5.14,0.954 8.945,0.283 11.419,-1.996 2.475,-2.282 3.711,-5.14 3.711,-8.562 0,-0.571 -0.049,-5.708 -0.144,-15.417 -0.098,-9.709 -0.144,-18.179 -0.144,-25.406 l -6.567,1.136 c -4.187,0.767 -9.469,1.092 -15.846,1 -6.374,-0.089 -12.991,-0.757 -19.842,-1.999 -6.854,-1.231 -13.229,-4.086 -19.13,-8.559 -5.898,-4.473 -10.085,-10.328 -12.56,-17.556 l -2.855,-6.57 c -1.903,-4.374 -4.899,-9.233 -8.992,-14.559 -4.093,-5.331 -8.232,-8.945 -12.419,-10.848 l -1.999,-1.431 c -1.332,-0.951 -2.568,-2.098 -3.711,-3.429 -1.142,-1.331 -1.997,-2.663 -2.568,-3.997 -0.572,-1.335 -0.098,-2.43 1.427,-3.289 1.525,-0.859 4.281,-1.276 8.28,-1.276 l 5.708,0.853 c 3.807,0.763 8.516,3.042 14.133,6.851 5.614,3.806 10.229,8.754 13.846,14.842 4.38,7.806 9.657,13.754 15.846,17.847 6.184,4.093 12.419,6.136 18.699,6.136 6.28,0 11.704,-0.476 16.274,-1.423 4.565,-0.952 8.848,-2.383 12.847,-4.285 1.713,-12.758 6.377,-22.559 13.988,-29.41 -10.848,-1.14 -20.601,-2.857 -29.264,-5.14 -8.658,-2.286 -17.605,-5.996 -26.835,-11.14 -9.235,-5.137 -16.896,-11.516 -22.985,-19.126 -6.09,-7.614 -11.088,-17.61 -14.987,-29.979 -3.901,-12.374 -5.852,-26.648 -5.852,-42.826 0,-23.035 7.52,-42.637 22.557,-58.817 -7.044,-17.318 -6.379,-36.732 1.997,-58.24 5.52,-1.715 13.706,-0.428 24.554,3.853 10.85,4.283 18.794,7.952 23.84,10.994 5.046,3.041 9.089,5.618 12.135,7.708 17.705,-4.947 35.976,-7.421 54.818,-7.421 18.842,0 37.117,2.474 54.823,7.421 l 10.849,-6.849 c 7.419,-4.57 16.18,-8.758 26.262,-12.565 10.088,-3.805 17.802,-4.853 23.134,-3.138 8.562,21.509 9.325,40.922 2.279,58.24 15.036,16.18 22.559,35.787 22.559,58.817 0,16.178 -1.958,30.497 -5.853,42.966 -3.9,12.471 -8.941,22.457 -15.125,29.979 -6.191,7.521 -13.901,13.85 -23.131,18.986 -9.232,5.14 -18.182,8.85 -26.84,11.136 -8.662,2.286 -18.415,4.004 -29.263,5.146 9.894,8.562 14.842,22.077 14.842,40.539 v 60.237 c 0,3.422 1.19,6.279 3.572,8.562 2.379,2.279 6.136,2.95 11.276,1.995 44.163,-14.653 80.185,-41.062 108.068,-79.226 27.88,-38.161 41.825,-81.126 41.825,-128.906 -0.01,-39.771 -9.818,-76.454 -29.414,-110.049 z"
         inkscape:connector-curvature="0"
         style="fill:#ffffff;fill-opacity:1;stroke:#000000;stroke-opacity:1;stroke-width:20.24803124;stroke-miterlimit:4;stroke-dasharray:none" />
    </g>
    <g
       id="g4958"
       style="fill:#24292e;fill-opacity:1;stroke:none;stroke-opacity:0"
       transform="matrix(0.09272635,0,0,0.09272635,-54.209109,-47.213383)" />
    <g
       id="g4960"
       style="fill:#24292e;fill-opacity:1;stroke:none;stroke-opacity:0"
       transform="matrix(0.09272635,0,0,0.09272635,-54.209109,-47.213383)" />
    <g
       id="g4962"
       style="fill:#24292e;fill-opacity:1;stroke:none;stroke-opacity:0"
       transform="matrix(0.09272635,0,0,0.09272635,-54.209109,-47.213383)" />
    <g
       id="g4964"
       style="fill:#24292e;fill-opacity:1;stroke:none;stroke-opacity:0"
       transform="matrix(0.09272635,0,0,0.09272635,-54.209109,-47.213383)" />
    <g
       id="g4966"
       style="fill:#24292e;fill-opacity:1;stroke:none;stroke-opacity:0"
       transform="matrix(0.09272635,0,0,0.09272635,-54.209109,-47.213383)" />
    <g
       id="g4968"
       style="fill:#24292e;fill-opacity:1;stroke:none;stroke-opacity:0"
       transform="matrix(0.09272635,0,0,0.09272635,-54.209109,-47.213383)" />
    <g
       id="g4970"
       style="fill:#24292e;fill-opacity:1;stroke:none;stroke-opacity:0"
       transform="matrix(0.09272635,0,0,0.09272635,-54.209109,-47.213383)" />
    <g
       id="g4972"
       style="fill:#24292e;fill-opacity:1;stroke:none;stroke-opacity:0"
       transform="matrix(0.09272635,0,0,0.09272635,-54.209109,-47.213383)" />
    <g
       id="g4974"
       style="fill:#24292e;fill-opacity:1;stroke:none;stroke-opacity:0"
       transform="matrix(0.09272635,0,0,0.09272635,-54.209109,-47.213383)" />
    <g
       id="g4976"
       style="fill:#24292e;fill-opacity:1;stroke:none;stroke-opacity:0"
       transform="matrix(0.09272635,0,0,0.09272635,-54.209109,-47.213383)" />
    <g
       id="g4978"
       style="fill:#24292e;fill-opacity:1;stroke:none;stroke-opacity:0"
       transform="matrix(0.09272635,0,0,0.09272635,-54.209109,-47.213383)" />
    <g
       id="g4980"
       style="fill:#24292e;fill-opacity:1;stroke:none;stroke-opacity:0"
       transform="matrix(0.09272635,0,0,0.09272635,-54.209109,-47.213383)" />
    <g
       id="g4982"
       style="fill:#24292e;fill-opacity:1;stroke:none;stroke-opacity:0"
       transform="matrix(0.09272635,0,0,0.09272635,-54.209109,-47.213383)" />
    <g
       id="g4984"
       style="fill:#24292e;fill-opacity:1;stroke:none;stroke-opacity:0"
       transform="matrix(0.09272635,0,0,0.09272635,-54.209109,-47.213383)" />
    <g
       id="g4986"
       style="fill:#24292e;fill-opacity:1;stroke:none;stroke-opacity:0"
       transform="matrix(0.09272635,0,0,0.09272635,-54.209109,-47.213383)" />
  </g>
</svg>
